<svg xmlns="http://www.w3.org/2000/svg" xmlns:xlink="http://www.w3.org/1999/xlink"><symbol id="cloud" viewBox="0 0 24 24"><g fill="none">
<path d="M19.35 10.04C18.67 6.59 15.64 4 12 4C9.11 4 6.61 5.64 5.36 8.04C2.35 8.36 0 10.9 0 14C0 17.31 2.69 20 6 20H19C21.76 20 24 17.76 24 15C24 12.36 21.95 10.22 19.35 10.04ZM19 18H6C3.79 18 2 16.21 2 14C2 11.79 3.79 10 6 10C8.21 10 10 11.79 10 14H12C12 11.24 10.14 8.92 7.6 8.22C8.61 6.88 10.2 6 12 6C15.03 6 17.5 8.47 17.5 11.5V12H19C20.65 12 22 13.35 22 15C22 16.65 20.65 18 19 18Z" fill="#323232"/>
</g></symbol><symbol id="wifi" viewBox="0 0 24 24"><g fill="none">
<path d="M2.06008 10.06C2.57008 10.57 3.38008 10.62 3.93008 10.16C8.60008 6.31999 15.3801 6.31999 20.0601 10.15C20.6201 10.61 21.4401 10.57 21.9501 10.06C22.5401 9.46999 22.5001 8.48999 21.8501 7.95999C16.1401 3.28999 7.88008 3.28999 2.16008 7.95999C1.51008 8.47999 1.46008 9.45999 2.06008 10.06ZM9.82008 17.82L11.2901 19.29C11.6801 19.68 12.3101 19.68 12.7001 19.29L14.1701 17.82C14.6401 17.35 14.5401 16.54 13.9401 16.23C12.7201 15.6 11.2601 15.6 10.0301 16.23C9.46008 16.54 9.35008 17.35 9.82008 17.82ZM6.09008 14.09C6.58008 14.58 7.35008 14.63 7.92008 14.22C10.3601 12.49 13.6401 12.49 16.0801 14.22C16.6501 14.62 17.4201 14.58 17.9101 14.09L17.9201 14.08C18.5201 13.48 18.4801 12.46 17.7901 11.97C14.3501 9.47999 9.66008 9.47999 6.21008 11.97C5.52008 12.47 5.48008 13.48 6.09008 14.09Z" fill="#323232"/>
</g></symbol></svg>